<svg xmlns="http://www.w3.org/2000/svg" viewBox="0 0 100 100" width="24" height="24">
  <path d="M1.22541 61.5228c-.2225-.9485.90748-1.5459 1.59638-.857L39.4760 97.1782c.6889.6889.0915 1.8189-.857 1.5964C20.0515 94.4522 5.5478 79.9485 1.22541 61.5228zM.00189135 46.8891c-.01764375.2833.08887573.5599.28957.7606L52.3503 99.7085c.2007.2007.4773.3072.7606.2896 2.3692-.1476 4.6938-.46 6.9624-.9259.7645-.157 1.0301-1.0963.4782-1.6481L2.57595 39.4485c-.55186-.5519-1.49117-.2863-1.648174.4782-.465915 2.2686-.779581 4.5932-.927181 6.9624zM4.21257 32.0864c-.16979.3052-.12945.6807.10288.9455L66.9681 95.6850c.2648.2323.6403.2726.9455.1028 1.7858-.9928 3.5214-2.0839 5.1983-3.2692.5349-.375.6073-1.1312.1586-1.5999L8.01193 26.7882c-.46866-.4687-1.22473-.3963-1.59993.1586-1.18532 1.6769-2.27644 3.4125-3.26943 5.1996zM11.3864 20.0083c-.4022.3502-.4434.9547-.0961 1.3541L79.6378 89.7099c.3994.3473 1.0039.3061 1.3541-.0961 1.0915-1.2534 2.1455-2.554 3.1598-3.8995.3781-.5089.2874-1.2201-.2097-1.6585L15.2559 16.8485c-.4384-.4971-1.1496-.5878-1.6585-.2097-1.3455 1.0143-2.6461 2.0683-3.8995 3.1595h-.111zM22.1727 11.9582c-.5341-.3785-1.2608-.2848-1.6955.2151l-.0001.0001c-1.2317 1.389-2.4158 2.8241-3.5495 4.3023-.3571.4736-.2886 1.1412.1578 1.5338l64.2116 64.2116c.3926.4464 1.0602.5149 1.5338.1578 1.4782-1.1337 2.9133-2.3178 4.3023-3.5495.4999-.4347.5936-1.1614.2151-1.6955L22.1727 11.9582zM34.8676 5.82101c-.6654-.40001-1.5029-.18766-1.9178.47884l-.0001.00006c-.9341 1.55606-1.8212 3.14786-2.6637 4.77089-.2791.5399-.1468 1.1993.3163 1.5986l57.7107 57.7107c.3993.4631 1.0587.5954 1.5986.3163 1.623-.8425 3.2148-1.7296 4.7709-2.6637.6665-.4149.8788-1.2524.4788-1.9178L34.8676 5.82101zM51.5 2.52636c-.8373-.27412-1.7221.19468-1.9452 1.04008C48.6348 6.09478 47.8153 8.6712 47.1356 11.292c-.1556.5982.1249 1.2224.6699 1.5074l39.4052 39.4052c.285.545.9092.8255 1.5074.6699 2.6208-.6797 5.1972-1.4992 7.7259-2.4192.8454-.3231 1.3142-1.2079 1.0401-2.0452L51.5 2.52636z" fill="#5E6AD2"/>
</svg>