<svg xmlns="http://www.w3.org/2000/svg" viewBox="0 0 100 100" width="24" height="24">
  <path d="M6.017 4.313l55.333-4.087c6.797-.583 8.543-.19 12.817 2.917l17.663 12.443c2.913 2.14 3.887 2.723 3.887 5.053v68.243c0 4.277-.193 6.223-5.443 6.61L13.09 99.93c-3.883.193-5.833-.387-7.99-3.107L1.883 91.48C-.073 88.853 0 87.19 0 84.853V10.333c0-3.497 1.553-6.22 6.017-6.02z" fill="#fff"/>
  <path d="M61.35.227l-55.333 4.087C1.553 4.12 0 6.84 0 10.333v74.52c0 2.34-.073 4 1.883 6.627l4.22 5.343c2.153 2.72 4.103 3.3 7.99 3.107l74.183-4.393c5.253-.387 5.443-2.333 5.443-6.61V15.64c0-2.18-.807-2.847-3.443-4.733L74.167 3.143c-4.273-3.107-6.02-3.5-12.817-2.917zM25.07 19.503c-5.613.353-6.887.433-10.063-2.1L9.12 13.367c-.77-.78-.383-1.753 1.557-1.94l53.193-3.887c4.467-.387 6.793 1.167 8.54 2.527l9.123 6.61c.39.197 1.36 1.36.194 1.36l-54.933 3.3-.724.167zM19.22 84.853V27.027c0-2.723.777-3.5 3.113-3.89L79.71 19.16c2.143-.39 3.113.98 3.113 3.5v57.407c0 2.527-.39 4.67-3.883 4.863l-56.8 3.3c-3.497.193-3.92-1.167-3.92-3.5v.123zm56.023-54.497c.387 1.75 0 3.5-1.75 3.693l-2.91.57v42.773c-2.527 1.36-4.853 2.14-6.797 2.14-3.107 0-3.883-.973-6.21-3.887l-19.03-29.94v28.967l6.02 1.363s0 3.5-4.857 3.5l-13.373.777c-.39-.777 0-2.723 1.357-3.11l3.497-1.167V33.48L27.764 32.9c-.39-1.75.58-4.277 3.3-4.473l14.343-.973 19.8 30.327v-26.83l-5.055-.583c-.39-2.143 1.166-3.7 3.106-3.89l13.985-.974z" fill="#000"/>
</svg>