<svg xmlns="http://www.w3.org/2000/svg" viewBox="0 0 60 25" width="60" height="25">
  <path d="M59.64 14.28h-8.06c.19 1.93 1.6 2.55 3.2 2.55 1.64 0 2.96-.37 4.05-.95v3.32a8.33 8.33 0 0 1-4.56 1.1c-4.01 0-6.83-2.5-6.83-7.48 0-4.19 2.39-7.52 6.3-7.52 3.92 0 5.96 3.28 5.96 7.5 0 .4-.04 1.26-.06 1.48zm-5.92-5.62c-1.03 0-2.17.73-2.17 2.58h4.25c0-1.85-1.07-2.58-2.08-2.58zM40.95 20.3c-1.44 0-2.32-.6-2.9-1.04l-.02 4.63-4.45.94V5.2h3.93l.14 1.06c.57-.67 1.56-1.44 3.23-1.44 2.87 0 5.5 2.57 5.5 7.58 0 5.34-2.6 7.9-5.43 7.9zM40 8.95c-.95 0-1.54.34-1.97.81l.02 6.12c.4.44.98.78 1.95.78 1.52 0 2.54-1.65 2.54-3.87 0-2.15-1.04-3.84-2.54-3.84zM28.24 5.2h4.46v14.83h-4.46zm0-4.7L32.7 0v3.63l-4.46.94zm-7.56 17.83c1.56 0 2.34-.76 2.34-1.88 0-1.14-.82-1.74-2.56-2.36-2.59-.9-4.43-2.38-4.43-5.06 0-2.87 2.3-5.01 5.96-5.01 1.8 0 3.28.43 4.29 1.01l-.94 3.27c-.77-.43-1.99-.9-3.38-.9-1.44 0-2.08.67-2.08 1.67 0 1.1.95 1.6 2.78 2.28 2.73.98 4.21 2.5 4.21 5.19 0 2.82-2.1 5.17-6.33 5.17-1.83 0-3.66-.5-4.67-1.1l.9-3.37c.93.5 2.68 1.09 3.91 1.09zm-9.96.48H6.26V5.2h4.46v13.61zm0-17.83L10.72 0v3.63l-4.46.94zM0 5.2h4.45v14.83H0z" fill="#635BFF"/>
</svg>